<mxfile host="app.diagrams.net" modified="2024-10-29T06:01:13.035Z" agent="Mozilla/5.0 (Macintosh; Intel Mac OS X 10_15_7) AppleWebKit/537.36 (KHTML, like Gecko) Chrome/130.0.0.0 Safari/537.36 Edg/130.0.0.0" version="24.4.9" etag="kii9EWOadxg1rg-2Y0d1" type="github">
  <diagram name="第 1 页" id="6Z8pvNvlttSnrLOCmmaE">
    <mxGraphModel>
      <root>
        <mxCell id="0" />
        <mxCell id="1" parent="0" />
      </root>
    </mxGraphModel>
  </diagram>
</mxfile>
